<?xml version="1.0" standalone="no"?><!DOCTYPE svg PUBLIC "-//W3C//DTD SVG 1.1//EN" "http://www.w3.org/Graphics/SVG/1.1/DTD/svg11.dtd"><svg t="1484386722460" class="icon" style="" viewBox="0 0 1024 1024" version="1.1" xmlns="http://www.w3.org/2000/svg" p-id="4740" xmlns:xlink="http://www.w3.org/1999/xlink" width="200" height="200"><defs><style type="text/css"></style></defs><path d="M850.657047 370.306884c-6.28003 0-12.564154 2.334161-17.393135 7.014764L508.756119 691.772386 181.673689 377.258203c-9.797134-9.42158-25.494651-9.242502-35.063587 0.394996-9.56996 9.645684-9.385764 25.099654 0.407276 34.513048l344.478635 331.243193c9.657964 9.28548 25.094538 9.261944 34.720779-0.067538l341.836459-331.240123c9.757225-9.453303 9.881045-24.90625 0.271176-34.512025C863.47191 372.737236 857.063967 370.306884 850.657047 370.306884L850.657047 370.306884 850.657047 370.306884zM252.258281 221.543745c-4.29277 0-8.586562 1.63422-11.824303 4.900613-6.379291 6.423293-6.255471 16.727986 0.272199 23.003923L497.272577 496.15308c6.427386 6.183839 16.692171 6.179746 23.115464-0.008186L775.356037 250.41633c6.519484-6.29231 6.631024-16.588817 0.243547-23.00904-6.383384-6.423293-16.85283-6.52767-23.372314-0.243547L508.812401 461.764875 263.814478 226.176253c-3.218298-3.093455-7.387247-4.632507-11.552104-4.632507L252.258281 221.543745 252.258281 221.543745zM252.258281 221.543745" p-id="4741"></path></svg>